# xmcd
#
# Track frame offsets:
#	150
#	14990
#	27939
#	40026
#	53354
#	65067
#	78142
#	91175
#	106554
#	120077
#	130819
#	148632
#	167584
#	181465
#	194573
#	206144
#	218226
#	230522
#
# Disc length: 3245
#
# Revision: 1
# Processed by: cddbd v1.5.1PL0 Copyright (c) Steve Scherf et al.
# Submitted via: ExactAudioCopy v0.90b4
# Normalized: r0:DSETVAR1,TDELIM( - )
#
DISCID=f00cab12
DTITLE=Various Artist - Country Dynasty
DYEAR=1900
DGENRE=Country
TTITLE0=Bellamy Brothers - Let Your Love Flow
TTITLE1=Billie Jo Spears - 57 Chevrolet
TTITLE2=Glen Campbell - Galveston
TTITLE3=Dr. Hook - Everybody's Makin' It Big But Me
TTITLE4=Patsy Cline - Sweet Dreams (Of You)
TTITLE5=Bobbie Gentry - I'll Never Fall In Love Again
TTITLE6=Faron Young - It's Four In The Morning
TTITLE7=Don Williams - I Recall A Gypsy Woman
TTITLE8=Loretta Lynn - Coal Miners' Daughter
TTITLE9=Billie Jo Spears - What I've Got In Mind
TTITLE10=Lee Greenwood - The Wind Beneath My Wings
TTITLE11=Nanci Griffith - From A Distance
TTITLE12=Tennessee Ernie Ford - Mule Train
TTITLE13=Crystal Gayle - Talkin' In Your Sleep
TTITLE14=Glen Campbell and Bobbie Gentry - All I Have To Do Is Dream
TTITLE15=George Jones and Melba Montgomery - We Must Have Been Out Of Our Minds
TTITLE16=Patsy Cline - Crazy
TTITLE17=Dr. Hook - When You're In Love With A Beautiful Woman
EXTD=
EXTT0=
EXTT1=
EXTT2=
EXTT3=
EXTT4=
EXTT5=
EXTT6=
EXTT7=
EXTT8=
EXTT9=
EXTT10=
EXTT11=
EXTT12=
EXTT13=
EXTT14=
EXTT15=
EXTT16=
EXTT17=
PLAYORDER=
